<svg width="22" height="23" viewBox="0 0 22 23" fill="none" xmlns="http://www.w3.org/2000/svg">
<path d="M16.7535 4.2087H13.9437C13.4922 1.81643 11.384 0 8.855 0C6.32596 0 4.21778 1.81643 3.76583 4.2087H0.956522C0.428043 4.2087 0 4.63674 0 5.16522V22C0 22.528 0.428043 22.9565 0.956522 22.9565H16.7535C17.2815 22.9565 17.71 22.528 17.71 22V19.2495C20.1472 18.7995 22 16.6674 22 14.1087C22 11.55 20.1472 9.41791 17.71 8.96787V5.16522C17.71 4.63674 17.282 4.2087 16.7535 4.2087ZM8.855 1.91304C10.3228 1.91304 11.5672 2.88104 11.979 4.2087H5.73052C6.1423 2.88104 7.38722 1.91304 8.855 1.91304ZM15.797 21.0435H1.91304V6.12174H3.67304V7.79278C3.67304 8.32078 4.10157 8.7493 4.62957 8.7493C5.15757 8.7493 5.58609 8.32078 5.58609 7.79278V6.12174H12.1239V7.79278C12.1239 8.32078 12.5524 8.7493 13.0804 8.7493C13.6084 8.7493 14.037 8.32078 14.037 7.79278V6.12174H15.7974V8.96357C15.7793 8.96691 15.7616 8.97217 15.7439 8.976C15.6831 8.98796 15.6238 9.00374 15.5636 9.01761C15.4627 9.04104 15.3627 9.06544 15.2647 9.09461C15.202 9.11326 15.1403 9.1343 15.0786 9.15535C14.9853 9.18691 14.893 9.21991 14.8022 9.25626C14.741 9.28065 14.6807 9.30648 14.6209 9.33326C14.532 9.37296 14.4444 9.41504 14.3583 9.45952C14.301 9.48917 14.2436 9.51883 14.1876 9.55039C14.101 9.59917 14.0164 9.6513 13.9332 9.70487C13.8815 9.73787 13.8299 9.76943 13.7797 9.80435C13.6907 9.86557 13.6051 9.93109 13.5204 9.99757C13.4798 10.0296 13.4377 10.0593 13.398 10.0923C13.2842 10.187 13.1747 10.2864 13.0694 10.3902C13.0613 10.3979 13.0527 10.405 13.045 10.4127C12.9322 10.5256 12.8246 10.6442 12.7222 10.7666C12.6921 10.8025 12.6658 10.8407 12.6366 10.8771C12.5668 10.9656 12.4984 11.0545 12.4338 11.1473C12.3999 11.1961 12.3693 11.2473 12.3372 11.297C12.2827 11.3817 12.2296 11.4668 12.1803 11.5543C12.1488 11.6098 12.1201 11.6667 12.0904 11.7236C12.046 11.8102 12.0034 11.8972 11.9637 11.9862C11.9369 12.0464 11.9111 12.1067 11.8867 12.1679C11.8503 12.2578 11.8173 12.3492 11.7863 12.4415C11.7652 12.5041 11.7437 12.5668 11.725 12.6304C11.6963 12.7265 11.6724 12.8241 11.6495 12.9226C11.6351 12.9848 11.6193 13.046 11.6069 13.1087C11.5859 13.2177 11.5706 13.3287 11.5562 13.4401C11.5495 13.4941 11.5395 13.5477 11.5342 13.6022C11.5165 13.7691 11.507 13.938 11.507 14.1087C11.507 14.2794 11.5165 14.4483 11.5328 14.6152C11.538 14.6697 11.5481 14.7233 11.5548 14.7773C11.5691 14.8887 11.5844 14.9997 11.6055 15.1087C11.6179 15.1714 11.6337 15.2326 11.648 15.2948C11.671 15.3933 11.6949 15.4909 11.7236 15.587C11.7423 15.6506 11.7638 15.7133 11.7848 15.7759C11.8159 15.8682 11.8489 15.9596 11.8853 16.0495C11.9101 16.1107 11.9355 16.1714 11.9623 16.2312C12.002 16.3202 12.0445 16.4072 12.089 16.4938C12.1182 16.5507 12.1473 16.6076 12.1789 16.6631C12.2282 16.7506 12.2817 16.8357 12.3358 16.9204C12.3678 16.9706 12.3989 17.0213 12.4324 17.0701C12.4965 17.1629 12.5653 17.2518 12.6352 17.3398C12.6643 17.3762 12.6911 17.4149 12.7208 17.4503C12.8231 17.5732 12.9303 17.6913 13.0436 17.8042C13.0513 17.8123 13.0603 17.819 13.068 17.8267C13.1732 17.9305 13.2827 18.03 13.3966 18.1247C13.4363 18.1577 13.4783 18.1873 13.519 18.2193C13.6037 18.2858 13.6893 18.3513 13.7782 18.4126C13.8284 18.447 13.8806 18.479 13.9317 18.512C14.0154 18.5656 14.0996 18.6177 14.1862 18.6665C14.2426 18.6981 14.2995 18.7277 14.3569 18.7574C14.443 18.8019 14.5305 18.844 14.6195 18.8837C14.6793 18.9104 14.7395 18.9363 14.8007 18.9607C14.8916 18.997 14.9839 19.0305 15.0772 19.0616C15.1389 19.0826 15.2006 19.1037 15.2632 19.1223C15.3617 19.1515 15.4617 19.1759 15.5621 19.1993C15.6224 19.2132 15.6817 19.229 15.7424 19.2409C15.7606 19.2443 15.7778 19.25 15.796 19.2533V21.0435H15.797ZM20.087 14.1087C20.087 15.939 18.5914 17.4278 16.7535 17.4278C14.915 17.4278 13.4195 15.939 13.4195 14.1087C13.4195 12.2784 14.915 10.7896 16.7535 10.7896C18.5914 10.7896 20.087 12.2784 20.087 14.1087Z" fill="#FF8B00"/>
<path d="M6.20934 17.8885H5.05147V16.7397C5.05147 16.2117 4.62343 15.7832 4.09495 15.7832C3.56695 15.7832 3.13843 16.2117 3.13843 16.7397V18.845C3.13843 19.373 3.56695 19.8016 4.09495 19.8016H6.20934C6.73782 19.8016 7.16586 19.373 7.16586 18.845C7.16586 18.317 6.73782 17.8885 6.20934 17.8885Z" fill="#FF8B00"/>
<path d="M14.3765 14.1089C14.3765 14.6369 14.805 15.0654 15.333 15.0654H18.1724C18.7004 15.0654 19.1289 14.6369 19.1289 14.1089C19.1289 13.5809 18.7004 13.1523 18.1724 13.1523H15.333C14.805 13.1523 14.3765 13.5804 14.3765 14.1089Z" fill="#FF8B00"/>
</svg>
