<svg width="22" height="22" viewBox="0 0 22 22" fill="none" xmlns="http://www.w3.org/2000/svg">
<path d="M16.0554 4.03333H13.3623C12.9296 1.74075 10.9093 0 8.48558 0C6.06192 0 4.04204 1.74075 3.60892 4.03333H0.916667C0.410208 4.03333 0 4.44354 0 4.95V21.0833C0 21.5893 0.410208 22 0.916667 22H16.0554C16.5614 22 16.9721 21.5893 16.9721 21.0833V18.4475C19.3078 18.0162 21.0833 15.9729 21.0833 13.5208C21.0833 11.0688 19.3078 9.0255 16.9721 8.59421V4.95C16.9721 4.44354 16.5619 4.03333 16.0554 4.03333ZM8.48558 1.83333C9.89221 1.83333 11.0848 2.761 11.479 4.03333H5.49221C5.88637 2.761 7.07896 1.83333 8.48558 1.83333ZM15.1388 20.1667H1.83333V5.86667H3.52V7.46808C3.52 7.97408 3.93067 8.38475 4.43667 8.38475C4.94267 8.38475 5.35333 7.97408 5.35333 7.46808V5.86667H11.6183V7.46808C11.6183 7.97408 12.029 8.38475 12.535 8.38475C13.0414 8.38475 13.4516 7.97408 13.4516 7.46808V5.86667H15.1392V8.59008C15.1218 8.59329 15.1048 8.59833 15.0879 8.602C15.0297 8.61346 14.9728 8.62858 14.9151 8.64188C14.8184 8.66433 14.7226 8.68771 14.6282 8.71567C14.5681 8.73354 14.509 8.75371 14.4499 8.77388C14.3605 8.80412 14.272 8.83575 14.185 8.87058C14.1263 8.89396 14.0685 8.91871 14.0113 8.94438C13.926 8.98242 13.8421 9.02275 13.7596 9.06538C13.7046 9.09379 13.6496 9.12221 13.596 9.15246C13.513 9.19921 13.4319 9.24917 13.3522 9.3005C13.3027 9.33212 13.2532 9.36238 13.205 9.39583C13.1198 9.4545 13.0378 9.51729 12.9566 9.581C12.9177 9.61171 12.8773 9.64013 12.8393 9.67175C12.7302 9.7625 12.6253 9.85783 12.5244 9.95729C12.5166 9.96463 12.5084 9.9715 12.501 9.97883C12.3929 10.087 12.2898 10.2007 12.1917 10.318C12.1628 10.3524 12.1376 10.389 12.1096 10.4239C12.0427 10.5087 11.9767 10.5939 11.9153 10.6828C11.8828 10.7296 11.8534 10.7786 11.8227 10.8263C11.7705 10.9074 11.7196 10.989 11.6724 11.0729C11.6421 11.126 11.6146 11.1806 11.5862 11.2351C11.5436 11.3181 11.5028 11.4015 11.4648 11.4868C11.4391 11.5445 11.4143 11.6023 11.391 11.6609C11.3561 11.7471 11.3245 11.8346 11.2947 11.9231C11.2745 11.9831 11.2539 12.0432 11.236 12.1041C11.2085 12.1963 11.1856 12.2898 11.1636 12.3842C11.1499 12.4438 11.1348 12.5024 11.1228 12.5625C11.1027 12.667 11.088 12.7733 11.0743 12.8801C11.0678 12.9319 11.0582 12.9832 11.0532 13.0355C11.0367 13.1954 11.0275 13.3572 11.0275 13.5208C11.0275 13.6845 11.0367 13.8463 11.0523 14.0062C11.0573 14.0585 11.0669 14.1098 11.0733 14.1616C11.0871 14.2684 11.1018 14.3747 11.1219 14.4792C11.1338 14.5393 11.149 14.5979 11.1627 14.6575C11.1847 14.7519 11.2076 14.8454 11.2351 14.9375C11.253 14.9985 11.2736 15.0585 11.2938 15.1186C11.3236 15.207 11.3552 15.2946 11.39 15.3807C11.4139 15.4394 11.4382 15.4976 11.4638 15.5549C11.5019 15.6402 11.5427 15.7236 11.5853 15.8065C11.6133 15.8611 11.6412 15.9156 11.6715 15.9688C11.7187 16.0527 11.77 16.1343 11.8218 16.2154C11.8525 16.2635 11.8823 16.3121 11.9144 16.3588C11.9758 16.4478 12.0418 16.533 12.1087 16.6173C12.1367 16.6522 12.1623 16.6893 12.1908 16.7232C12.2888 16.841 12.3915 16.9542 12.5001 17.0624C12.5075 17.0702 12.5162 17.0766 12.5235 17.0839C12.6243 17.1834 12.7293 17.2787 12.8384 17.3695C12.8764 17.4011 12.9167 17.4295 12.9557 17.4602C13.0368 17.5239 13.1189 17.5867 13.2041 17.6454C13.2523 17.6784 13.3022 17.7091 13.3512 17.7407C13.4315 17.792 13.5121 17.842 13.5951 17.8888C13.6492 17.919 13.7037 17.9474 13.7587 17.9758C13.8412 18.0185 13.9251 18.0588 14.0103 18.0968C14.0676 18.1225 14.1254 18.1473 14.184 18.1706C14.2711 18.2055 14.3596 18.2375 14.449 18.2673C14.5081 18.2875 14.5672 18.3077 14.6273 18.3255C14.7217 18.3535 14.8175 18.3769 14.9142 18.3993C14.9719 18.4126 15.0288 18.4277 15.087 18.4392C15.1044 18.4424 15.1209 18.4479 15.1383 18.4511V20.1667H15.1388ZM19.25 13.5208C19.25 15.2749 17.8168 16.7017 16.0554 16.7017C14.2936 16.7017 12.8604 15.2749 12.8604 13.5208C12.8604 11.7668 14.2936 10.34 16.0554 10.34C17.8168 10.34 19.25 11.7668 19.25 13.5208Z" fill="white"/>
<path d="M5.95068 17.1445H4.84151V16.0436C4.84151 15.5376 4.43085 15.127 3.92485 15.127C3.41839 15.127 3.00818 15.5376 3.00818 16.0436V18.0612C3.00818 18.5672 3.41839 18.9779 3.92485 18.9779H5.95068C6.45668 18.9779 6.86735 18.5672 6.86735 18.0612C6.86735 17.5552 6.45668 17.1445 5.95068 17.1445Z" fill="white"/>
<path d="M15.1378 12.1667V12.6053H14.6941C14.1881 12.6053 13.7775 13.016 13.7775 13.522C13.7775 14.028 14.1881 14.4386 14.6941 14.4386H15.1383V14.8768C15.1383 15.3828 15.5489 15.7935 16.0549 15.7935C16.5609 15.7935 16.9716 15.3828 16.9716 14.8768V14.4386H17.4157C17.9217 14.4386 18.3324 14.028 18.3324 13.522C18.3324 13.016 17.9217 12.6053 17.4157 12.6053H16.9716V12.1667C16.9716 11.6607 16.5609 11.25 16.0549 11.25C15.5489 11.25 15.1378 11.6607 15.1378 12.1667Z" fill="white"/>
</svg>
