<svg width="24" height="24" viewBox="0 0 24 24" fill="none" xmlns="http://www.w3.org/2000/svg">
<path d="M7.7284 4C5.67241 4 4 5.82412 4 8.06595C4 8.66799 4.44811 9.1566 5.00024 9.1566C5.55238 9.1566 6.00049 8.66799 6.00049 8.06595C6.00049 7.02711 6.77567 6.1813 7.7284 6.1813C8.28054 6.1813 8.72865 5.69269 8.72865 5.09065C8.72865 4.48861 8.28104 4 7.7284 4Z" fill="#FF7051"/>
<path d="M12.0005 2.07803C10.6894 0.741719 8.97331 6.20921e-05 7.19219 0C6.24947 0.00108797 5.31624 0.208816 4.44622 0.611228C3.5762 1.01364 2.78656 1.60279 2.12275 2.34478C-0.708585 5.4965 -0.707382 10.4261 2.12515 13.5645L10.9477 23.3438C11.1522 23.7426 11.5469 24 12.0005 24C12.1868 23.998 12.37 23.9476 12.5356 23.8529C12.7011 23.7581 12.8442 23.6217 12.9535 23.4545L21.8759 13.5645C24.7084 10.4248 24.7084 5.4965 21.8735 2.33945C21.21 1.59882 20.421 1.01087 19.5518 0.609381C18.6827 0.207896 17.7505 0.000799742 16.8089 0C15.0278 0.00032272 13.3118 0.741944 12.0005 2.07803ZM20.172 4.22541C22.0528 6.32077 22.054 9.59387 20.1744 11.6786L12.0005 20.7389L3.8266 11.6786C1.94707 9.59387 1.94827 6.32077 3.82419 4.23074C4.73869 3.22241 5.93476 2.66756 7.19219 2.66756C8.44963 2.66756 9.64088 3.22241 10.5482 4.22808L11.1498 4.89497C11.2615 5.01893 11.3941 5.11728 11.54 5.18439C11.686 5.25149 11.8425 5.28603 12.0005 5.28603C12.1586 5.28603 12.315 5.25149 12.461 5.18439C12.607 5.11728 12.7396 5.01893 12.8512 4.89497L13.4529 4.22808C15.2723 2.2154 18.3551 2.22074 20.172 4.22541Z" fill="#FF7051"/>
</svg>
