<svg width="20" height="24" viewBox="0 0 20 24" fill="none" xmlns="http://www.w3.org/2000/svg">
<path d="M10 0C4.48579 0 0 4.56708 0 10.1807C0 12.9826 1.15158 15.6894 3.13684 17.5858L8.56316 23.082L10 24L11.4474 23.082L16.8516 17.5963C18.8526 15.681 20 12.9789 20 10.1807C20 4.56708 15.5142 0 10 0ZM15.3837 16.0918C15.3758 16.0991 15.3684 16.1065 15.3611 16.1138L10 21.5454L4.61579 16.0923C2.99684 14.5458 2.10526 12.4464 2.10526 10.1807C2.10526 5.72433 5.64684 2.09836 10 2.09836C14.3532 2.09836 17.8947 5.72433 17.8947 10.1807C17.8947 12.4149 16.9795 14.5694 15.3837 16.0918Z" fill="#FF7051"/>
<path d="M9.99997 4.06836C6.78102 4.06836 4.1626 6.72961 4.1626 10.0009C4.1626 13.2718 6.78102 15.9335 9.99997 15.9335C13.2189 15.9335 15.8373 13.2718 15.8373 10.0009C15.8373 6.73013 13.2189 4.06836 9.99997 4.06836ZM9.99997 13.8352C7.94207 13.8352 6.26786 12.115 6.26786 10.0009C6.26786 7.88685 7.94207 6.16672 9.99997 6.16672C12.0579 6.16672 13.7321 7.88685 13.7321 10.0009C13.7321 12.115 12.0579 13.8352 9.99997 13.8352Z" fill="#FF7051"/>
</svg>
