<svg width="21" height="16" viewBox="0 0 21 16" fill="none" xmlns="http://www.w3.org/2000/svg">
<path d="M18.7973 0H4.59442C3.47543 0 2.56543 0.897 2.56543 2V7H4.59442V4L11.0872 8.8C11.2628 8.92967 11.4764 8.99975 11.6959 8.99975C11.9153 8.99975 12.1289 8.92967 12.3046 8.8L18.7973 4V13H10.6814V15H18.7973C19.9163 15 20.8263 14.103 20.8263 13V2C20.8263 0.897 19.9163 0 18.7973 0ZM11.6959 6.75L5.27007 2H18.1217L11.6959 6.75Z" fill="#F2F2F2"/>
<path d="M0.536133 8H7.63758V10H0.536133V8ZM2.56512 11H8.65207V13H2.56512V11ZM5.6086 14H9.66657V16H5.6086V14Z" fill="#F2F2F2"/>
</svg>
