<svg width="16" height="16" viewBox="0 0 16 16" fill="none" xmlns="http://www.w3.org/2000/svg">
<path d="M10.2001 0C10.1998 0 10.1994 0 10.1994 0C8.64978 0 7.19314 0.603667 6.09749 1.69933C5.0015 2.795 4.39818 4.25167 4.39818 5.80067C4.39818 7.125 4.84251 8.38 5.65516 9.401L0.195247 14.862C-0.0650823 15.1223 -0.0650823 15.5443 0.195247 15.805C0.325912 15.935 0.496242 16 0.666906 16C0.83757 16 1.00823 15.935 1.13857 15.8047L6.59848 10.344C7.6198 11.1567 8.87478 11.6013 10.1991 11.6013C10.1994 11.6013 10.1994 11.6013 10.1998 11.6013C11.7487 11.6013 13.2054 10.9977 14.3007 9.90167C15.3963 8.80633 16 7.34967 16 5.80033C16 4.251 15.3963 2.79433 14.3007 1.69867C13.2054 0.603333 11.7491 0 10.2001 0ZM13.358 8.95867C12.5141 9.803 11.3927 10.268 10.1998 10.268H10.1994C9.00644 10.268 7.88479 9.80267 7.04047 8.95867C6.19649 8.115 5.73183 6.99367 5.73183 5.80033C5.73183 4.607 6.19682 3.48567 7.04047 2.64167C7.88413 1.79833 9.00611 1.33333 10.1994 1.33333C10.1994 1.33333 10.1994 1.33333 10.2001 1.33333C11.3931 1.33333 12.5147 1.798 13.358 2.64133C14.2017 3.48533 14.6667 4.60733 14.6667 5.80033C14.6667 6.99333 14.2017 8.11533 13.358 8.95867Z" fill="white"/>
</svg>
