<svg width="22" height="30" viewBox="0 0 22 30" fill="none" xmlns="http://www.w3.org/2000/svg">
<path d="M17.3378 5.37778C16.775 2.32161 14.1497 0 11 0C7.85033 0 5.225 2.32161 4.66278 5.37778H1.22222C0.546944 5.37778 0 5.92533 0 6.6V28.1111C0 28.7858 0.546944 29.3333 1.22222 29.3333H20.7778C21.4524 29.3333 22 28.7858 22 28.1111V6.6C22 5.92533 21.4524 5.37778 20.7778 5.37778H17.3378ZM11 2.44444C12.8003 2.44444 14.3263 3.68133 14.8311 5.37778H7.16894C7.67372 3.68133 9.19967 2.44444 11 2.44444ZM19.5556 26.8889H2.44444V7.82222H4.54728V9.95622C4.54728 10.6309 5.09422 11.1784 5.7695 11.1784C6.44417 11.1784 6.99172 10.6309 6.99172 9.95622V7.82222H15.0089V9.95622C15.0089 10.6309 15.5564 11.1784 16.2311 11.1784C16.9058 11.1784 17.4533 10.6309 17.4533 9.95622V7.82222H19.5556V26.8889Z" fill="#FF7051"/>
<path d="M16.885 20.168C16.2104 20.168 15.6628 20.7155 15.6628 21.3902V22.8587H14.2676C13.593 22.8587 13.0454 23.4062 13.0454 24.0809C13.0454 24.7556 13.593 25.3031 14.2676 25.3031H16.885C17.5597 25.3031 18.1072 24.7556 18.1072 24.0809V21.3902C18.1072 20.7149 17.5597 20.168 16.885 20.168Z" fill="#FF7051"/>
</svg>
