<svg width="24" height="25" viewBox="0 0 24 25" fill="none" xmlns="http://www.w3.org/2000/svg">
<path d="M23.7797 10.0221H12.2442V14.7633H18.8341C18.55 16.2959 17.6879 17.5921 16.3885 18.4606C15.2901 19.1949 13.8885 19.6291 12.2411 19.6291C9.05148 19.6291 6.3536 17.474 5.38938 14.5782C5.14673 13.8438 5.00625 13.0584 5.00625 12.2506C5.00625 11.4429 5.14673 10.6574 5.38938 9.92311C6.35679 7.03046 9.05468 4.87535 12.2442 4.87535C14.0418 4.87535 15.6541 5.49475 16.9248 6.708L20.4369 3.19276C18.3137 1.21325 15.5456 0 12.2442 0C7.45829 0 3.31728 2.74578 1.30265 6.7495C0.472529 8.40335 0 10.2743 0 12.2538C0 14.2333 0.472529 16.1011 1.30265 17.755C3.31728 21.7587 7.45829 24.5045 12.2442 24.5045C15.5519 24.5045 18.3233 23.4061 20.3475 21.5352C22.6622 19.4024 24 16.2607 24 12.5284C24 11.66 23.9234 10.8267 23.7797 10.0221Z" fill="white"/>
</svg>
